<svg xmlns="http://www.w3.org/2000/svg" xmlns:xlink="http://www.w3.org/1999/xlink" width="1030" height="564.46"><rect width="1030" height="564.46" rx="0" ry="0" class="a"/><svg height="564.46" viewBox="0 0 103 56.446" width="1030" xmlns="http://www.w3.org/2000/svg" xmlns:xlink="http://www.w3.org/1999/xlink"><style>@keyframes v{0%{transform:translateX(0)}2.3%{transform:translateX(-103px)}2.6%{transform:translateX(-206px)}3%{transform:translateX(-309px)}5.1%{transform:translateX(-412px)}16.3%{transform:translateX(-515px)}16.6%{transform:translateX(-618px)}18.5%{transform:translateX(-721px)}27.6%{transform:translateX(-824px)}28.1%{transform:translateX(-1030px)}28.2%{transform:translateX(-2266px)}28.3%{transform:translateX(-2369px)}28.5%{transform:translateX(-2472px)}29%{transform:translateX(-2575px)}31.2%{transform:translateX(-2678px)}35.2%{transform:translateX(-2781px)}40.4%{transform:translateX(-2884px)}50.8%{transform:translateX(-2987px)}51%{transform:translateX(-3399px)}63.5%{transform:translateX(-3502px)}76.1%{transform:translateX(-3605px)}88.6%{transform:translateX(-3811px)}88.9%{transform:translateX(-3914px)}89.3%{transform:translateX(-4017px)}91.4%{transform:translateX(-4120px)}to{transform:translateX(-4223px)}}.a{fill:#282d35}.c{fill:#00afff}.d{fill:#a8a8a8}.e{fill:#5fd787;font-weight:700}.f{fill:gray}.g{fill:#ff8700}.h{fill:#a8cc8c}.j{fill:#b9c0cb}.k{fill:#444}.m{fill:#f92672}.n{fill:#f8f8f2}.o{fill:#66d9ef}.q{fill:#e6db74}.r{fill:#be84ff}.s{fill:#a8cc8c;font-weight:700}</style><g font-size="1.67" font-family="Monaco,Consolas,Menlo,'Bitstream Vera Sans Mono','Powerline Symbols',monospace"><defs><symbol id="16"><text x="3.006" y="1.67" class="k">8</text><text x="5.01" y="1.67" class="h">+</text><text x="7.014" y="1.67" class="k">│</text><text x="13.026" y="1.67" class="n">w.</text><text x="15.03" y="1.67" class="o">println</text><text x="22.044" y="1.67" class="n">(</text><text x="23.046" y="1.67" class="q">&quot;Launching</text><text x="34.068" y="1.67" class="q">rockets&quot;</text><text x="42.084" y="1.67" class="n">)</text><text x="43.086" y="1.67" class="m">?</text><text x="44.088" y="1.67" class="n">;</text></symbol><symbol id="1"><text x="1.002" y="1.67" class="c">~/src/poindexter</text></symbol><symbol id="3"><text x="1.002" y="1.67" class="c">poindexter</text><text x="73.146" y="1.67" class="d">G:</text><text x="75.15" y="1.67" class="e">feature/demo</text><text x="87.174" y="1.67" class="f">[3Mi]</text><text x="93.186" y="1.67" class="d">0a8cebf</text><text x="101.202" y="1.67" class="g">⭑</text></symbol><symbol id="4"><text x="1.002" y="1.67" class="c">poindexter</text><text x="12.024" y="1.67" class="h">cat</text><text x="16.032" y="1.67" fill="#b9c0cb" text-decoration="underline">examples/advanced.rs</text><text x="73.146" y="1.67" class="d">G:</text><text x="75.15" y="1.67" class="e">feature/demo</text><text x="87.174" y="1.67" class="f">[3Mi]</text><text x="93.186" y="1.67" class="d">0a8cebf</text><text x="101.202" y="1.67" class="g">⭑</text></symbol><symbol id="5"><text x="1.002" y="1.67" class="c">poindexter</text><text x="12.024" y="1.67" class="h">c</text><text x="14.028" y="1.67" class="j">r</text><text x="16.032" y="1.67" class="j">--example</text><text x="26.052" y="1.67" class="j">advanced</text><text x="73.146" y="1.67" class="d">G:</text><text x="75.15" y="1.67" class="e">feature/demo</text><text x="87.174" y="1.67" class="f">[3Mi]</text><text x="93.186" y="1.67" class="d">0a8cebf</text><text x="101.202" y="1.67" class="g">⭑</text></symbol><symbol id="6"><text y="1.67" class="k">───────┬───────────────────────────────────────────────────────────────────────────────────────────────</text></symbol><symbol id="7"><text x="7.014" y="1.67" class="k">│</text><text x="9.018" y="1.67" class="j">File:</text><text x="15.03" y="1.67" fill="#b9c0cb" font-weight="700">examples/advanced.rs</text></symbol><symbol id="8"><text y="1.67" class="k">───────┼───────────────────────────────────────────────────────────────────────────────────────────────</text></symbol><symbol id="9"><text x="3.006" y="1.67" class="k">1</text><text x="5.01" y="1.67" class="h">+</text><text x="7.014" y="1.67" class="k">│</text><text x="9.018" y="1.67" class="m">use</text><text x="13.026" y="1.67" class="n">poindexter::PrintWorker;</text></symbol><symbol id="10"><text x="3.006" y="1.67" class="k">2</text><text x="5.01" y="1.67" class="h">+</text><text x="7.014" y="1.67" class="k">│</text><text x="9.018" y="1.67" class="m">use</text><text x="13.026" y="1.67" class="n">std::{thread,</text><text x="27.054" y="1.67" class="n">time};</text></symbol><symbol id="11"><text x="3.006" y="1.67" class="k">3</text><text x="5.01" y="1.67" class="h">+</text><text x="7.014" y="1.67" class="k">│</text></symbol><symbol id="12"><text x="3.006" y="1.67" class="k">4</text><text x="5.01" y="1.67" class="h">+</text><text x="7.014" y="1.67" class="k">│</text><text x="9.018" y="1.67" class="o">fn</text><text x="12.024" y="1.67" fill="#a6e22e">main</text><text x="16.032" y="1.67" class="n">()</text><text x="19.038" y="1.67" class="n">-&gt;</text><text x="22.044" y="1.67" class="n">Result&lt;(),</text><text x="33.066" y="1.67" class="n">std::io::Error&gt;</text><text x="49.098" y="1.67" class="n">{</text></symbol><symbol id="13"><text x="3.006" y="1.67" class="k">5</text><text x="5.01" y="1.67" class="h">+</text><text x="7.014" y="1.67" class="k">│</text><text x="13.026" y="1.67" class="o">let</text><text x="17.034" y="1.67" class="n">w</text><text x="19.038" y="1.67" class="m">=</text><text x="21.042" y="1.67" class="n">PrintWorker::default();</text></symbol><symbol id="14"><text x="3.006" y="1.67" class="k">6</text><text x="5.01" y="1.67" class="h">+</text><text x="7.014" y="1.67" class="k">│</text><text x="13.026" y="1.67" class="n">w.</text><text x="15.03" y="1.67" class="o">println</text><text x="22.044" y="1.67" class="n">(</text><text x="23.046" y="1.67" class="q">&quot;Building</text><text x="33.066" y="1.67" class="q">rockets&quot;</text><text x="41.082" y="1.67" class="n">)</text><text x="42.084" y="1.67" class="m">?</text><text x="43.086" y="1.67" class="n">;</text></symbol><symbol id="15"><text x="3.006" y="1.67" class="k">7</text><text x="5.01" y="1.67" class="h">+</text><text x="7.014" y="1.67" class="k">│</text><text x="13.026" y="1.67" class="n">thread::sleep(time::Duration::from_secs(</text><text x="53.106" y="1.67" class="r">1</text><text x="54.108" y="1.67" class="n">));</text></symbol><symbol id="2"><text x="1.002" y="1.67" class="c">poindexter</text></symbol><symbol id="17"><text x="3.006" y="1.67" class="k">9</text><text x="5.01" y="1.67" class="h">+</text><text x="7.014" y="1.67" class="k">│</text><text x="13.026" y="1.67" class="n">thread::sleep(time::Duration::from_secs(</text><text x="53.106" y="1.67" class="r">1</text><text x="54.108" y="1.67" class="n">));</text></symbol><symbol id="18"><text x="2.004" y="1.67" class="k">10</text><text x="5.01" y="1.67" class="h">+</text><text x="7.014" y="1.67" class="k">│</text><text x="13.026" y="1.67" class="n">w.</text><text x="15.03" y="1.67" class="o">println</text><text x="22.044" y="1.67" class="n">(</text><text x="23.046" y="1.67" class="q">&quot;Terraforming</text><text x="37.074" y="1.67" class="q">Mars&quot;</text><text x="42.084" y="1.67" class="n">)</text><text x="43.086" y="1.67" class="m">?</text><text x="44.088" y="1.67" class="n">;</text></symbol><symbol id="19"><text x="2.004" y="1.67" class="k">11</text><text x="5.01" y="1.67" class="h">+</text><text x="7.014" y="1.67" class="k">│</text><text x="13.026" y="1.67" class="n">thread::sleep(time::Duration::from_secs(</text><text x="53.106" y="1.67" class="r">1</text><text x="54.108" y="1.67" class="n">));</text></symbol><symbol id="20"><text x="2.004" y="1.67" class="k">12</text><text x="5.01" y="1.67" class="h">+</text><text x="7.014" y="1.67" class="k">│</text><text x="13.026" y="1.67" class="n">w.</text><text x="15.03" y="1.67" class="o">println</text><text x="22.044" y="1.67" class="n">(</text><text x="23.046" y="1.67" class="q">&quot;Colonizing&quot;</text><text x="35.07" y="1.67" class="n">)</text></symbol><symbol id="21"><text x="2.004" y="1.67" class="k">13</text><text x="5.01" y="1.67" class="h">+</text><text x="7.014" y="1.67" class="k">│</text><text x="9.018" y="1.67" class="n">}</text></symbol><symbol id="22"><text y="1.67" class="k">───────┴───────────────────────────────────────────────────────────────────────────────────────────────</text></symbol><symbol id="23"><text x="4.008" y="1.67" class="s">Finished</text><text x="13.026" y="1.67" class="j">dev</text><text x="17.034" y="1.67" class="j">[unoptimized</text><text x="30.06" y="1.67" class="j">+</text><text x="32.064" y="1.67" class="j">debuginfo]</text><text x="43.086" y="1.67" class="j">target(s)</text><text x="53.106" y="1.67" class="j">in</text><text x="56.112" y="1.67" class="j">0.00s</text></symbol><symbol id="24"><text x="5.01" y="1.67" class="s">Running</text><text x="13.026" y="1.67" class="j">`target/debug/examples/advanced`</text></symbol><symbol id="25"><text y="1.67" class="j">Building</text><text x="9.018" y="1.67" class="j">rockets</text></symbol><symbol id="26"><text y="1.67" class="j">Launching</text><text x="10.02" y="1.67" class="j">rockets</text></symbol><symbol id="27"><text y="1.67" class="j">Terraforming</text><text x="13.026" y="1.67" class="j">Mars</text></symbol><symbol id="28"><text y="1.67" class="j">Colonizing</text></symbol><symbol id="29"><text y="1.67" class="d">3</text><text x="2.004" y="1.67" class="c">poindexter</text><text x="73.146" y="1.67" class="d">G:</text><text x="75.15" y="1.67" class="e">feature/demo</text><text x="87.174" y="1.67" class="f">[3Mi]</text><text x="93.186" y="1.67" class="d">0a8cebf</text><text x="101.202" y="1.67" class="g">⭑</text></symbol><symbol id="a"><path fill="transparent" d="M0 0h103v26H0z"/></symbol><symbol id="b"><path fill="#6f7683" d="M0 0h1.102v2.171H0z"/></symbol></defs><path class="a" d="M0 0h103v56.446H0z"/><g style="animation-duration:8.02484s;animation-iteration-count:infinite;animation-name:v;animation-timing-function:steps(1,end)"><svg width="4326"><svg><use xlink:href="#a"/><use xlink:href="#b" x="-.004"/></svg><svg x="103"><use xlink:href="#a"/><use xlink:href="#b" x="-.004"/></svg><svg x="206"><use xlink:href="#a"/><use xlink:href="#b" x="17.996"/><use xlink:href="#1"/></svg><svg x="309"><use xlink:href="#a"/><use xlink:href="#b" x="11.996"/><use xlink:href="#2"/></svg><svg x="412"><use xlink:href="#a"/><use xlink:href="#b" x="11.996"/><use xlink:href="#3"/></svg><svg x="515"><use xlink:href="#a"/><use xlink:href="#b" x="35.996"/><use xlink:href="#4"/></svg><svg x="618"><use xlink:href="#a"/><use xlink:href="#b" x="33.996"/><use xlink:href="#5"/></svg><svg x="721"><use xlink:href="#a"/><use xlink:href="#b" x="35.996"/><use xlink:href="#4"/></svg><svg x="824"><use xlink:href="#a"/><use xlink:href="#b" x="-.004" y="2.146"/><use xlink:href="#4"/></svg><svg x="927"><use xlink:href="#a"/><use xlink:href="#b" x="-.004" y="2.146"/><use xlink:href="#4"/></svg><svg x="1030"><use xlink:href="#a"/><use xlink:href="#b" x="-.004" y="8.659"/><use xlink:href="#4"/><use xlink:href="#6" y="2.171"/><use xlink:href="#7" y="4.342"/><use xlink:href="#8" y="6.513"/></svg><svg x="1133"><use xlink:href="#a"/><use xlink:href="#b" x="-.004" y="10.83"/><use xlink:href="#4"/><use xlink:href="#6" y="2.171"/><use xlink:href="#7" y="4.342"/><use xlink:href="#8" y="6.513"/><use xlink:href="#9" y="8.684"/></svg><svg x="1236"><use xlink:href="#a"/><use xlink:href="#b" x="-.004" y="15.172"/><use xlink:href="#4"/><use xlink:href="#6" y="2.171"/><use xlink:href="#7" y="4.342"/><use xlink:href="#8" y="6.513"/><use xlink:href="#9" y="8.684"/><use xlink:href="#10" y="10.855"/><use xlink:href="#11" y="13.026"/></svg><svg x="1339"><use xlink:href="#a"/><use xlink:href="#b" x="-.004" y="17.343"/><use xlink:href="#4"/><use xlink:href="#6" y="2.171"/><use xlink:href="#7" y="4.342"/><use xlink:href="#8" y="6.513"/><use xlink:href="#9" y="8.684"/><use xlink:href="#10" y="10.855"/><use xlink:href="#11" y="13.026"/><use xlink:href="#12" y="15.197"/></svg><svg x="1442"><use xlink:href="#a"/><use xlink:href="#b" x="-.004" y="19.514"/><use xlink:href="#4"/><use xlink:href="#6" y="2.171"/><use xlink:href="#7" y="4.342"/><use xlink:href="#8" y="6.513"/><use xlink:href="#9" y="8.684"/><use xlink:href="#10" y="10.855"/><use xlink:href="#11" y="13.026"/><use xlink:href="#12" y="15.197"/><use xlink:href="#13" y="17.368"/></svg><svg x="1545"><use xlink:href="#a"/><use xlink:href="#b" x="-.004" y="21.685"/><use xlink:href="#4"/><use xlink:href="#6" y="2.171"/><use xlink:href="#7" y="4.342"/><use xlink:href="#8" y="6.513"/><use xlink:href="#9" y="8.684"/><use xlink:href="#10" y="10.855"/><use xlink:href="#11" y="13.026"/><use xlink:href="#12" y="15.197"/><use xlink:href="#13" y="17.368"/><use xlink:href="#14" y="19.539"/></svg><svg x="1648"><use xlink:href="#a"/><use xlink:href="#b" x="-.004" y="23.856"/><use xlink:href="#4"/><use xlink:href="#6" y="2.171"/><use xlink:href="#7" y="4.342"/><use xlink:href="#8" y="6.513"/><use xlink:href="#9" y="8.684"/><use xlink:href="#10" y="10.855"/><use xlink:href="#11" y="13.026"/><use xlink:href="#12" y="15.197"/><use xlink:href="#13" y="17.368"/><use xlink:href="#14" y="19.539"/><use xlink:href="#15" y="21.71"/></svg><svg x="1751"><use xlink:href="#a"/><use xlink:href="#b" x="-.004" y="26.027"/><use xlink:href="#4"/><use xlink:href="#6" y="2.171"/><use xlink:href="#7" y="4.342"/><use xlink:href="#8" y="6.513"/><use xlink:href="#9" y="8.684"/><use xlink:href="#10" y="10.855"/><use xlink:href="#11" y="13.026"/><use xlink:href="#12" y="15.197"/><use xlink:href="#13" y="17.368"/><use xlink:href="#14" y="19.539"/><use xlink:href="#15" y="21.71"/><use xlink:href="#16" y="23.881"/></svg><svg x="1854"><use xlink:href="#a"/><use xlink:href="#b" x="-.004" y="28.198"/><use xlink:href="#4"/><use xlink:href="#6" y="2.171"/><use xlink:href="#7" y="4.342"/><use xlink:href="#8" y="6.513"/><use xlink:href="#9" y="8.684"/><use xlink:href="#10" y="10.855"/><use xlink:href="#11" y="13.026"/><use xlink:href="#12" y="15.197"/><use xlink:href="#13" y="17.368"/><use xlink:href="#14" y="19.539"/><use xlink:href="#15" y="21.71"/><use xlink:href="#16" y="23.881"/><use xlink:href="#17" y="26.052"/></svg><svg x="1957"><use xlink:href="#a"/><use xlink:href="#b" x="-.004" y="30.369"/><use xlink:href="#4"/><use xlink:href="#6" y="2.171"/><use xlink:href="#7" y="4.342"/><use xlink:href="#8" y="6.513"/><use xlink:href="#9" y="8.684"/><use xlink:href="#10" y="10.855"/><use xlink:href="#11" y="13.026"/><use xlink:href="#12" y="15.197"/><use xlink:href="#13" y="17.368"/><use xlink:href="#14" y="19.539"/><use xlink:href="#15" y="21.71"/><use xlink:href="#16" y="23.881"/><use xlink:href="#17" y="26.052"/><use xlink:href="#18" y="28.223"/></svg><svg x="2060"><use xlink:href="#a"/><use xlink:href="#b" x="-.004" y="32.54"/><use xlink:href="#4"/><use xlink:href="#6" y="2.171"/><use xlink:href="#7" y="4.342"/><use xlink:href="#8" y="6.513"/><use xlink:href="#9" y="8.684"/><use xlink:href="#10" y="10.855"/><use xlink:href="#11" y="13.026"/><use xlink:href="#12" y="15.197"/><use xlink:href="#13" y="17.368"/><use xlink:href="#14" y="19.539"/><use xlink:href="#15" y="21.71"/><use xlink:href="#16" y="23.881"/><use xlink:href="#17" y="26.052"/><use xlink:href="#18" y="28.223"/><use xlink:href="#19" y="30.394"/></svg><svg x="2163"><use xlink:href="#a"/><use xlink:href="#b" x="-.004" y="39.053"/><use xlink:href="#4"/><use xlink:href="#6" y="2.171"/><use xlink:href="#7" y="4.342"/><use xlink:href="#8" y="6.513"/><use xlink:href="#9" y="8.684"/><use xlink:href="#10" y="10.855"/><use xlink:href="#11" y="13.026"/><use xlink:href="#12" y="15.197"/><use xlink:href="#13" y="17.368"/><use xlink:href="#14" y="19.539"/><use xlink:href="#15" y="21.71"/><use xlink:href="#16" y="23.881"/><use xlink:href="#17" y="26.052"/><use xlink:href="#18" y="28.223"/><use xlink:href="#19" y="30.394"/><use xlink:href="#20" y="32.565"/><use xlink:href="#21" y="34.736"/><use xlink:href="#22" y="36.907"/></svg><svg x="2266"><use xlink:href="#a"/><use xlink:href="#b" x="-.004" y="39.053"/><use xlink:href="#4"/><use xlink:href="#6" y="2.171"/><use xlink:href="#7" y="4.342"/><use xlink:href="#8" y="6.513"/><use xlink:href="#9" y="8.684"/><use xlink:href="#10" y="10.855"/><use xlink:href="#11" y="13.026"/><use xlink:href="#12" y="15.197"/><use xlink:href="#13" y="17.368"/><use xlink:href="#14" y="19.539"/><use xlink:href="#15" y="21.71"/><use xlink:href="#16" y="23.881"/><use xlink:href="#17" y="26.052"/><use xlink:href="#18" y="28.223"/><use xlink:href="#19" y="30.394"/><use xlink:href="#20" y="32.565"/><use xlink:href="#21" y="34.736"/><use xlink:href="#22" y="36.907"/></svg><svg x="2369"><use xlink:href="#a"/><use xlink:href="#b" x="-.004" y="39.053"/><use xlink:href="#4"/><use xlink:href="#6" y="2.171"/><use xlink:href="#7" y="4.342"/><use xlink:href="#8" y="6.513"/><use xlink:href="#9" y="8.684"/><use xlink:href="#10" y="10.855"/><use xlink:href="#11" y="13.026"/><use xlink:href="#12" y="15.197"/><use xlink:href="#13" y="17.368"/><use xlink:href="#14" y="19.539"/><use xlink:href="#15" y="21.71"/><use xlink:href="#16" y="23.881"/><use xlink:href="#17" y="26.052"/><use xlink:href="#18" y="28.223"/><use xlink:href="#19" y="30.394"/><use xlink:href="#20" y="32.565"/><use xlink:href="#21" y="34.736"/><use xlink:href="#22" y="36.907"/></svg><svg x="2472"><use xlink:href="#a"/><use xlink:href="#b" x="17.996" y="39.053"/><use xlink:href="#4"/><use xlink:href="#6" y="2.171"/><use xlink:href="#7" y="4.342"/><use xlink:href="#8" y="6.513"/><use xlink:href="#9" y="8.684"/><use xlink:href="#10" y="10.855"/><use xlink:href="#11" y="13.026"/><use xlink:href="#12" y="15.197"/><use xlink:href="#13" y="17.368"/><use xlink:href="#14" y="19.539"/><use xlink:href="#15" y="21.71"/><use xlink:href="#16" y="23.881"/><use xlink:href="#17" y="26.052"/><use xlink:href="#18" y="28.223"/><use xlink:href="#19" y="30.394"/><use xlink:href="#20" y="32.565"/><use xlink:href="#21" y="34.736"/><use xlink:href="#22" y="36.907"/><use xlink:href="#1" y="39.078"/></svg><svg x="2575"><use xlink:href="#a"/><use xlink:href="#b" x="11.996" y="39.053"/><use xlink:href="#4"/><use xlink:href="#6" y="2.171"/><use xlink:href="#7" y="4.342"/><use xlink:href="#8" y="6.513"/><use xlink:href="#9" y="8.684"/><use xlink:href="#10" y="10.855"/><use xlink:href="#11" y="13.026"/><use xlink:href="#12" y="15.197"/><use xlink:href="#13" y="17.368"/><use xlink:href="#14" y="19.539"/><use xlink:href="#15" y="21.71"/><use xlink:href="#16" y="23.881"/><use xlink:href="#17" y="26.052"/><use xlink:href="#18" y="28.223"/><use xlink:href="#19" y="30.394"/><use xlink:href="#20" y="32.565"/><use xlink:href="#21" y="34.736"/><use xlink:href="#22" y="36.907"/><use xlink:href="#2" y="39.078"/></svg><svg x="2678"><use xlink:href="#a"/><use xlink:href="#b" x="11.996" y="39.053"/><use xlink:href="#4"/><use xlink:href="#6" y="2.171"/><use xlink:href="#7" y="4.342"/><use xlink:href="#8" y="6.513"/><use xlink:href="#9" y="8.684"/><use xlink:href="#10" y="10.855"/><use xlink:href="#11" y="13.026"/><use xlink:href="#12" y="15.197"/><use xlink:href="#13" y="17.368"/><use xlink:href="#14" y="19.539"/><use xlink:href="#15" y="21.71"/><use xlink:href="#16" y="23.881"/><use xlink:href="#17" y="26.052"/><use xlink:href="#18" y="28.223"/><use xlink:href="#19" y="30.394"/><use xlink:href="#20" y="32.565"/><use xlink:href="#21" y="34.736"/><use xlink:href="#22" y="36.907"/><use xlink:href="#3" y="39.078"/></svg><svg x="2781"><use xlink:href="#a"/><use xlink:href="#b" x="35.996" y="39.053"/><use xlink:href="#4"/><use xlink:href="#6" y="2.171"/><use xlink:href="#7" y="4.342"/><use xlink:href="#8" y="6.513"/><use xlink:href="#9" y="8.684"/><use xlink:href="#10" y="10.855"/><use xlink:href="#11" y="13.026"/><use xlink:href="#12" y="15.197"/><use xlink:href="#13" y="17.368"/><use xlink:href="#14" y="19.539"/><use xlink:href="#15" y="21.71"/><use xlink:href="#16" y="23.881"/><use xlink:href="#17" y="26.052"/><use xlink:href="#18" y="28.223"/><use xlink:href="#19" y="30.394"/><use xlink:href="#20" y="32.565"/><use xlink:href="#21" y="34.736"/><use xlink:href="#22" y="36.907"/><use xlink:href="#4" y="39.078"/></svg><svg x="2884"><use xlink:href="#a"/><use xlink:href="#b" x="33.996" y="39.053"/><use xlink:href="#4"/><use xlink:href="#6" y="2.171"/><use xlink:href="#7" y="4.342"/><use xlink:href="#8" y="6.513"/><use xlink:href="#9" y="8.684"/><use xlink:href="#10" y="10.855"/><use xlink:href="#11" y="13.026"/><use xlink:href="#12" y="15.197"/><use xlink:href="#13" y="17.368"/><use xlink:href="#14" y="19.539"/><use xlink:href="#15" y="21.71"/><use xlink:href="#16" y="23.881"/><use xlink:href="#17" y="26.052"/><use xlink:href="#18" y="28.223"/><use xlink:href="#19" y="30.394"/><use xlink:href="#20" y="32.565"/><use xlink:href="#21" y="34.736"/><use xlink:href="#22" y="36.907"/><use xlink:href="#5" y="39.078"/></svg><svg x="2987"><use xlink:href="#a"/><use xlink:href="#b" x="-.004" y="41.224"/><use xlink:href="#4"/><use xlink:href="#6" y="2.171"/><use xlink:href="#7" y="4.342"/><use xlink:href="#8" y="6.513"/><use xlink:href="#9" y="8.684"/><use xlink:href="#10" y="10.855"/><use xlink:href="#11" y="13.026"/><use xlink:href="#12" y="15.197"/><use xlink:href="#13" y="17.368"/><use xlink:href="#14" y="19.539"/><use xlink:href="#15" y="21.71"/><use xlink:href="#16" y="23.881"/><use xlink:href="#17" y="26.052"/><use xlink:href="#18" y="28.223"/><use xlink:href="#19" y="30.394"/><use xlink:href="#20" y="32.565"/><use xlink:href="#21" y="34.736"/><use xlink:href="#22" y="36.907"/><use xlink:href="#5" y="39.078"/></svg><svg x="3090"><use xlink:href="#a"/><use xlink:href="#b" x="11.996" y="41.224"/><use xlink:href="#4"/><use xlink:href="#6" y="2.171"/><use xlink:href="#7" y="4.342"/><use xlink:href="#8" y="6.513"/><use xlink:href="#9" y="8.684"/><use xlink:href="#10" y="10.855"/><use xlink:href="#11" y="13.026"/><use xlink:href="#12" y="15.197"/><use xlink:href="#13" y="17.368"/><use xlink:href="#14" y="19.539"/><use xlink:href="#15" y="21.71"/><use xlink:href="#16" y="23.881"/><use xlink:href="#17" y="26.052"/><use xlink:href="#18" y="28.223"/><use xlink:href="#19" y="30.394"/><use xlink:href="#20" y="32.565"/><use xlink:href="#21" y="34.736"/><use xlink:href="#22" y="36.907"/><use xlink:href="#5" y="39.078"/><text x="4.008" y="42.919" class="s">Finished</text></svg><svg x="3193"><use xlink:href="#a"/><use xlink:href="#b" x="-.004" y="43.395"/><use xlink:href="#4"/><use xlink:href="#6" y="2.171"/><use xlink:href="#7" y="4.342"/><use xlink:href="#8" y="6.513"/><use xlink:href="#9" y="8.684"/><use xlink:href="#10" y="10.855"/><use xlink:href="#11" y="13.026"/><use xlink:href="#12" y="15.197"/><use xlink:href="#13" y="17.368"/><use xlink:href="#14" y="19.539"/><use xlink:href="#15" y="21.71"/><use xlink:href="#16" y="23.881"/><use xlink:href="#17" y="26.052"/><use xlink:href="#18" y="28.223"/><use xlink:href="#19" y="30.394"/><use xlink:href="#20" y="32.565"/><use xlink:href="#21" y="34.736"/><use xlink:href="#22" y="36.907"/><use xlink:href="#5" y="39.078"/><use xlink:href="#23" y="41.249"/></svg><svg x="3296"><use xlink:href="#a"/><use xlink:href="#b" x="-.004" y="45.566"/><use xlink:href="#4"/><use xlink:href="#6" y="2.171"/><use xlink:href="#7" y="4.342"/><use xlink:href="#8" y="6.513"/><use xlink:href="#9" y="8.684"/><use xlink:href="#10" y="10.855"/><use xlink:href="#11" y="13.026"/><use xlink:href="#12" y="15.197"/><use xlink:href="#13" y="17.368"/><use xlink:href="#14" y="19.539"/><use xlink:href="#15" y="21.71"/><use xlink:href="#16" y="23.881"/><use xlink:href="#17" y="26.052"/><use xlink:href="#18" y="28.223"/><use xlink:href="#19" y="30.394"/><use xlink:href="#20" y="32.565"/><use xlink:href="#21" y="34.736"/><use xlink:href="#22" y="36.907"/><use xlink:href="#5" y="39.078"/><use xlink:href="#23" y="41.249"/><use xlink:href="#24" y="43.42"/></svg><svg x="3399"><use xlink:href="#a"/><use xlink:href="#b" x="16.996" y="45.566"/><use xlink:href="#4"/><use xlink:href="#6" y="2.171"/><use xlink:href="#7" y="4.342"/><use xlink:href="#8" y="6.513"/><use xlink:href="#9" y="8.684"/><use xlink:href="#10" y="10.855"/><use xlink:href="#11" y="13.026"/><use xlink:href="#12" y="15.197"/><use xlink:href="#13" y="17.368"/><use xlink:href="#14" y="19.539"/><use xlink:href="#15" y="21.71"/><use xlink:href="#16" y="23.881"/><use xlink:href="#17" y="26.052"/><use xlink:href="#18" y="28.223"/><use xlink:href="#19" y="30.394"/><use xlink:href="#20" y="32.565"/><use xlink:href="#21" y="34.736"/><use xlink:href="#22" y="36.907"/><use xlink:href="#5" y="39.078"/><use xlink:href="#23" y="41.249"/><use xlink:href="#24" y="43.42"/><text y="47.261" class="j">Building</text><text x="9.018" y="47.261" class="j">rockets…</text></svg><svg x="3502"><use xlink:href="#a"/><use xlink:href="#b" x="17.996" y="47.737"/><use xlink:href="#4"/><use xlink:href="#6" y="2.171"/><use xlink:href="#7" y="4.342"/><use xlink:href="#8" y="6.513"/><use xlink:href="#9" y="8.684"/><use xlink:href="#10" y="10.855"/><use xlink:href="#11" y="13.026"/><use xlink:href="#12" y="15.197"/><use xlink:href="#13" y="17.368"/><use xlink:href="#14" y="19.539"/><use xlink:href="#15" y="21.71"/><use xlink:href="#16" y="23.881"/><use xlink:href="#17" y="26.052"/><use xlink:href="#18" y="28.223"/><use xlink:href="#19" y="30.394"/><use xlink:href="#20" y="32.565"/><use xlink:href="#21" y="34.736"/><use xlink:href="#22" y="36.907"/><use xlink:href="#5" y="39.078"/><use xlink:href="#23" y="41.249"/><use xlink:href="#24" y="43.42"/><use xlink:href="#25" y="45.591"/><text y="49.432" class="j">Launching</text><text x="10.02" y="49.432" class="j">rockets…</text></svg><svg x="3605"><use xlink:href="#a"/><use xlink:href="#b" x="17.996" y="49.908"/><use xlink:href="#4"/><use xlink:href="#6" y="2.171"/><use xlink:href="#7" y="4.342"/><use xlink:href="#8" y="6.513"/><use xlink:href="#9" y="8.684"/><use xlink:href="#10" y="10.855"/><use xlink:href="#11" y="13.026"/><use xlink:href="#12" y="15.197"/><use xlink:href="#13" y="17.368"/><use xlink:href="#14" y="19.539"/><use xlink:href="#15" y="21.71"/><use xlink:href="#16" y="23.881"/><use xlink:href="#17" y="26.052"/><use xlink:href="#18" y="28.223"/><use xlink:href="#19" y="30.394"/><use xlink:href="#20" y="32.565"/><use xlink:href="#21" y="34.736"/><use xlink:href="#22" y="36.907"/><use xlink:href="#5" y="39.078"/><use xlink:href="#23" y="41.249"/><use xlink:href="#24" y="43.42"/><use xlink:href="#25" y="45.591"/><use xlink:href="#26" y="47.762"/><text y="51.603" class="j">Terraforming</text><text x="13.026" y="51.603" class="j">Mars…</text></svg><svg x="3708"><use xlink:href="#a"/><use xlink:href="#b" x="-.004" y="54.25"/><use xlink:href="#4"/><use xlink:href="#6" y="2.171"/><use xlink:href="#7" y="4.342"/><use xlink:href="#8" y="6.513"/><use xlink:href="#9" y="8.684"/><use xlink:href="#10" y="10.855"/><use xlink:href="#11" y="13.026"/><use xlink:href="#12" y="15.197"/><use xlink:href="#13" y="17.368"/><use xlink:href="#14" y="19.539"/><use xlink:href="#15" y="21.71"/><use xlink:href="#16" y="23.881"/><use xlink:href="#17" y="26.052"/><use xlink:href="#18" y="28.223"/><use xlink:href="#19" y="30.394"/><use xlink:href="#20" y="32.565"/><use xlink:href="#21" y="34.736"/><use xlink:href="#22" y="36.907"/><use xlink:href="#5" y="39.078"/><use xlink:href="#23" y="41.249"/><use xlink:href="#24" y="43.42"/><use xlink:href="#25" y="45.591"/><use xlink:href="#26" y="47.762"/><use xlink:href="#27" y="49.933"/><use xlink:href="#28" y="52.104"/></svg><svg x="3811"><use xlink:href="#a"/><use xlink:href="#b" x="-.004" y="54.25"/><use xlink:href="#4"/><use xlink:href="#6" y="2.171"/><use xlink:href="#7" y="4.342"/><use xlink:href="#8" y="6.513"/><use xlink:href="#9" y="8.684"/><use xlink:href="#10" y="10.855"/><use xlink:href="#11" y="13.026"/><use xlink:href="#12" y="15.197"/><use xlink:href="#13" y="17.368"/><use xlink:href="#14" y="19.539"/><use xlink:href="#15" y="21.71"/><use xlink:href="#16" y="23.881"/><use xlink:href="#17" y="26.052"/><use xlink:href="#18" y="28.223"/><use xlink:href="#19" y="30.394"/><use xlink:href="#20" y="32.565"/><use xlink:href="#21" y="34.736"/><use xlink:href="#22" y="36.907"/><use xlink:href="#5" y="39.078"/><use xlink:href="#23" y="41.249"/><use xlink:href="#24" y="43.42"/><use xlink:href="#25" y="45.591"/><use xlink:href="#26" y="47.762"/><use xlink:href="#27" y="49.933"/><use xlink:href="#28" y="52.104"/></svg><svg x="3914"><use xlink:href="#a"/><use xlink:href="#b" x="18.996" y="54.25"/><use xlink:href="#4"/><use xlink:href="#6" y="2.171"/><use xlink:href="#7" y="4.342"/><use xlink:href="#8" y="6.513"/><use xlink:href="#9" y="8.684"/><use xlink:href="#10" y="10.855"/><use xlink:href="#11" y="13.026"/><use xlink:href="#12" y="15.197"/><use xlink:href="#13" y="17.368"/><use xlink:href="#14" y="19.539"/><use xlink:href="#15" y="21.71"/><use xlink:href="#16" y="23.881"/><use xlink:href="#17" y="26.052"/><use xlink:href="#18" y="28.223"/><use xlink:href="#19" y="30.394"/><use xlink:href="#20" y="32.565"/><use xlink:href="#21" y="34.736"/><use xlink:href="#22" y="36.907"/><use xlink:href="#5" y="39.078"/><use xlink:href="#23" y="41.249"/><use xlink:href="#24" y="43.42"/><use xlink:href="#25" y="45.591"/><use xlink:href="#26" y="47.762"/><use xlink:href="#27" y="49.933"/><use xlink:href="#28" y="52.104"/><text y="55.945" class="d">3</text><text x="2.004" y="55.945" class="c">~/src/poindexter</text></svg><svg x="4017"><use xlink:href="#a"/><use xlink:href="#b" x="12.996" y="54.25"/><use xlink:href="#4"/><use xlink:href="#6" y="2.171"/><use xlink:href="#7" y="4.342"/><use xlink:href="#8" y="6.513"/><use xlink:href="#9" y="8.684"/><use xlink:href="#10" y="10.855"/><use xlink:href="#11" y="13.026"/><use xlink:href="#12" y="15.197"/><use xlink:href="#13" y="17.368"/><use xlink:href="#14" y="19.539"/><use xlink:href="#15" y="21.71"/><use xlink:href="#16" y="23.881"/><use xlink:href="#17" y="26.052"/><use xlink:href="#18" y="28.223"/><use xlink:href="#19" y="30.394"/><use xlink:href="#20" y="32.565"/><use xlink:href="#21" y="34.736"/><use xlink:href="#22" y="36.907"/><use xlink:href="#5" y="39.078"/><use xlink:href="#23" y="41.249"/><use xlink:href="#24" y="43.42"/><use xlink:href="#25" y="45.591"/><use xlink:href="#26" y="47.762"/><use xlink:href="#27" y="49.933"/><use xlink:href="#28" y="52.104"/><text y="55.945" class="d">3</text><text x="2.004" y="55.945" class="c">poindexter</text></svg><svg x="4120"><use xlink:href="#a"/><use xlink:href="#b" x="12.996" y="54.25"/><use xlink:href="#4"/><use xlink:href="#6" y="2.171"/><use xlink:href="#7" y="4.342"/><use xlink:href="#8" y="6.513"/><use xlink:href="#9" y="8.684"/><use xlink:href="#10" y="10.855"/><use xlink:href="#11" y="13.026"/><use xlink:href="#12" y="15.197"/><use xlink:href="#13" y="17.368"/><use xlink:href="#14" y="19.539"/><use xlink:href="#15" y="21.71"/><use xlink:href="#16" y="23.881"/><use xlink:href="#17" y="26.052"/><use xlink:href="#18" y="28.223"/><use xlink:href="#19" y="30.394"/><use xlink:href="#20" y="32.565"/><use xlink:href="#21" y="34.736"/><use xlink:href="#22" y="36.907"/><use xlink:href="#5" y="39.078"/><use xlink:href="#23" y="41.249"/><use xlink:href="#24" y="43.42"/><use xlink:href="#25" y="45.591"/><use xlink:href="#26" y="47.762"/><use xlink:href="#27" y="49.933"/><use xlink:href="#28" y="52.104"/><use xlink:href="#29" y="54.275"/></svg><svg x="4223"><use xlink:href="#a"/><use xlink:href="#b" x="-.004" y="54.25"/><use xlink:href="#6"/><use xlink:href="#7" y="2.171"/><use xlink:href="#8" y="4.342"/><use xlink:href="#9" y="6.513"/><use xlink:href="#10" y="8.684"/><use xlink:href="#11" y="10.855"/><use xlink:href="#12" y="13.026"/><use xlink:href="#13" y="15.197"/><use xlink:href="#14" y="17.368"/><use xlink:href="#15" y="19.539"/><use xlink:href="#16" y="21.71"/><use xlink:href="#17" y="23.881"/><use xlink:href="#18" y="26.052"/><use xlink:href="#19" y="28.223"/><use xlink:href="#20" y="30.394"/><use xlink:href="#21" y="32.565"/><use xlink:href="#22" y="34.736"/><use xlink:href="#5" y="36.907"/><use xlink:href="#23" y="39.078"/><use xlink:href="#24" y="41.249"/><use xlink:href="#25" y="43.42"/><use xlink:href="#26" y="45.591"/><use xlink:href="#27" y="47.762"/><use xlink:href="#28" y="49.933"/><use xlink:href="#29" y="52.104"/></svg></svg></g></g></svg></svg>